<svg width="556" height="170" viewBox="0 0 556 170" fill="none" xmlns="http://www.w3.org/2000/svg">
<path d="M131.414 33.7009C129.379 33.7009 127.373 33.8265 125.402 34.0646C125.271 33.577 125.049 33.128 124.754 32.7354C125.797 31.6694 126.432 30.2622 126.432 28.7189C126.432 25.3922 123.485 22.6953 119.85 22.6953C116.216 22.6953 113.269 25.3922 113.269 28.7189C113.269 31.3859 115.164 33.6466 117.788 34.439C117.753 34.647 117.731 34.8593 117.731 35.0771C117.731 35.2555 117.747 35.43 117.77 35.602C97.0108 41.5288 81.8129 60.6404 81.8129 83.3023C81.8129 110.696 104.02 132.904 131.414 132.904C158.808 132.904 181.016 110.696 181.016 83.3023C181.016 55.9083 158.808 33.7009 131.414 33.7009ZM114.831 28.7189C114.831 26.1817 117.078 24.1245 119.85 24.1245C122.623 24.1245 124.87 26.1815 124.87 28.7189C124.87 29.8716 124.405 30.9243 123.639 31.7309C123.052 31.3792 122.369 31.173 121.635 31.173C120.208 31.173 118.964 31.9407 118.283 33.0835C116.278 32.4806 114.831 30.755 114.831 28.7189ZM131.414 125.095C108.332 125.095 89.6212 106.384 89.6212 83.3023C89.6212 60.2206 108.333 41.5093 131.414 41.5093C154.496 41.5093 173.207 60.2206 173.207 83.3023C173.207 106.384 154.496 125.095 131.414 125.095Z" fill="black"/>
<path d="M160.584 100.973L163.311 102.707C166.759 97.0523 168.745 90.4094 168.745 83.3023C168.745 80.7973 168.497 78.3504 168.026 75.9837L165.072 76.6416C164.7 76.7244 164.333 76.4991 164.252 76.1382C164.172 75.7773 164.409 75.4177 164.781 75.3348L167.742 74.6758C165.557 65.4401 159.943 57.5304 152.316 52.3671L150.39 55.396C150.189 55.7131 149.772 55.8097 149.46 55.6114C149.148 55.413 149.059 54.995 149.261 54.6775L151.193 51.6385C145.458 48.0486 138.679 45.9709 131.414 45.9709C129.026 45.9709 126.69 46.198 124.427 46.6268L125.196 50.0813C125.278 50.4512 125.053 50.8162 124.692 50.8966C124.331 50.9768 123.972 50.7421 123.889 50.3721L123.116 46.8979C113.751 49.0236 105.724 54.6691 100.499 62.371L103.56 64.317C103.882 64.5212 103.981 64.9396 103.783 65.2516C103.585 65.5631 103.163 65.6507 102.842 65.4463L99.7695 63.4927C96.1676 69.2344 94.083 76.0241 94.083 83.3019C94.083 85.7897 94.3285 88.2199 94.7928 90.5714L98.3542 89.7785C98.7268 89.6954 99.0936 89.9209 99.1743 90.2816C99.2544 90.6421 99.0175 91.0022 98.6453 91.0846L95.0749 91.8797C97.2835 101.272 103.039 109.295 110.851 114.461L113.036 111.024C113.238 110.706 113.654 110.61 113.966 110.808C114.278 111.006 114.368 111.425 114.165 111.742L111.979 115.18C117.641 118.639 124.294 120.633 131.414 120.633C134.018 120.633 136.56 120.365 139.014 119.858L138.23 116.337C138.148 115.967 138.374 115.602 138.734 115.522C139.095 115.442 139.455 115.676 139.537 116.046L140.319 119.561C149.582 117.294 157.488 111.571 162.592 103.835L159.866 102.101C159.544 101.897 159.445 101.479 159.643 101.167C159.842 100.856 160.263 100.768 160.584 100.973ZM116.392 72.8254L123.213 75.3128C124.194 74.3054 125.36 73.4793 126.655 72.8865V59.0598L132.64 71.9162C133.109 71.9663 133.57 72.0451 134.021 72.15L133.019 73.0903C132.496 73.0087 131.96 72.9656 131.414 72.9656C125.705 72.9656 121.077 77.5934 121.077 83.3023C121.077 84.4811 121.278 85.6125 121.641 86.6677L120.914 87.8756C120.909 87.863 120.903 87.8511 120.898 87.8388H107.246L120.054 81.8763C120.235 80.415 120.69 79.0384 121.369 77.8014L116.392 72.8254ZM109.03 110.594L127.291 80.2429L127.438 79.9983L127.569 79.8753L153.23 55.8079L134.97 86.1589L134.822 86.404L134.692 86.5268L109.03 110.594ZM147.05 92.9969L140.366 90.4407C139.472 91.561 138.372 92.5091 137.122 93.229L137.295 93.2L137.073 107.471L131.392 94.7541C130.407 94.752 129.452 94.6245 128.54 94.3886L129.526 93.4641C130.139 93.5771 130.769 93.6391 131.414 93.6391C137.123 93.6391 141.751 89.011 141.751 83.3023C141.751 81.7081 141.39 80.1985 140.745 78.8501L141.419 77.7309C141.431 77.7525 141.444 77.7731 141.456 77.7947L155.434 78.0128L142.859 83.6303C142.817 85.0893 142.507 86.4812 141.969 87.7543L147.05 92.9969ZM131.298 80.1023C129.534 80.1814 128.167 81.6755 128.246 83.4396C128.325 85.2037 129.819 86.5702 131.584 86.4913C133.348 86.4127 134.714 84.9184 134.635 83.1543C134.557 81.3898 133.062 80.0235 131.298 80.1023Z" fill="black"/>
<path d="M7.04 129V124.776C10.2827 124.605 12.5013 123.88 13.696 122.6C14.8907 121.235 15.5307 119.4 15.616 117.096C15.7867 114.707 15.872 112.019 15.872 109.032V53.736C15.872 52.0293 15.9147 50.408 16 48.872C16.0853 47.2507 16.1707 45.8 16.256 44.52C14.72 44.6053 13.184 44.6907 11.648 44.776C10.112 44.8613 8.576 44.9467 7.04 45.032V39.4C11.8187 39.3147 16.64 39.2293 21.504 39.144C26.4533 39.0587 31.4027 39.1013 36.352 39.272C44.6293 39.3573 51.2853 40.3387 56.32 42.216C61.44 44.008 65.1947 46.6107 67.584 50.024C69.9733 53.352 71.168 57.4053 71.168 62.184C71.2533 65.512 70.6133 68.9253 69.248 72.424C67.968 75.8373 65.5787 78.9093 62.08 81.64C58.6667 84.3707 53.7173 86.4187 47.232 87.784C48.9387 88.9787 50.432 90.5147 51.712 92.392C52.992 94.2693 54.4427 96.4453 56.064 98.92L64.768 112.616C66.2187 114.92 67.6267 117.011 68.992 118.888C70.3573 120.68 71.936 122.131 73.728 123.24C75.52 124.264 77.7387 124.776 80.384 124.776V129H64.256C61.7813 126.781 59.6907 124.563 57.984 122.344C56.3627 120.125 54.656 117.608 52.864 114.792L44.288 101.096C43.1787 99.304 41.8987 97.256 40.448 94.952C39.0827 92.5627 37.504 90.5573 35.712 88.936C34.3467 89.0213 32.896 89.064 31.36 89.064C29.9093 89.064 28.4587 89.0213 27.008 88.936V113.768C27.008 116.072 26.9653 118.077 26.88 119.784C26.88 121.405 26.7947 122.771 26.624 123.88C27.648 123.795 28.672 123.752 29.696 123.752C30.72 123.667 31.744 123.581 32.768 123.496C33.792 123.411 34.816 123.368 35.84 123.368V129H7.04ZM34.944 84.2C39.6373 84.0293 43.7333 83.2613 47.232 81.896C50.816 80.5307 53.632 78.3547 55.68 75.368C57.728 72.3813 58.752 68.456 58.752 63.592C58.752 60.3493 58.2827 57.5333 57.344 55.144C56.4907 52.6693 55.1253 50.6213 53.248 49C51.3707 47.3787 48.9813 46.184 46.08 45.416C43.1787 44.5627 39.7653 44.136 35.84 44.136C32.6827 44.136 30.464 44.776 29.184 46.056C27.9893 47.336 27.3067 49.128 27.136 51.432C27.0507 53.6507 27.008 56.296 27.008 59.368V83.944C28.3733 84.0293 29.6533 84.1147 30.848 84.2C32.128 84.2853 33.4933 84.2853 34.944 84.2Z" fill="black"/>
<path d="M214.64 49.624C211.824 49.624 209.776 50.2213 208.496 51.416C207.301 52.6107 206.576 54.0187 206.32 55.64C206.064 57.176 205.936 58.5413 205.936 59.736V91.992C205.936 96.7707 206.235 101.421 206.832 105.944C207.515 110.381 208.752 114.392 210.544 117.976C212.336 121.56 214.981 124.419 218.48 126.552C222.064 128.685 226.715 129.752 232.432 129.752C238.576 129.752 243.568 128.301 247.408 125.4C251.333 122.499 254.192 118.488 255.984 113.368C257.861 108.248 258.843 102.36 258.928 95.704L259.312 59.736C259.312 58.0293 259.355 56.408 259.44 54.872C259.525 53.2507 259.611 51.8 259.696 50.52C258.16 50.6053 256.624 50.6907 255.088 50.776C253.637 50.8613 252.144 50.9467 250.608 51.032V45.4H274.416V49.624C271.173 49.7093 268.912 50.4347 267.632 51.8C266.437 53.1653 265.755 55 265.584 57.304C265.499 59.608 265.456 62.296 265.456 65.368L265.2 95.064C265.2 100.611 264.603 105.901 263.408 110.936C262.213 115.971 260.251 120.451 257.52 124.376C254.875 128.301 251.333 131.416 246.896 133.72C242.544 135.939 237.168 137.048 230.768 137.048C223.941 137.048 218.181 136.152 213.488 134.36C208.88 132.568 205.168 129.795 202.352 126.04C199.621 122.285 197.659 117.549 196.464 111.832C195.269 106.115 194.672 99.288 194.672 91.352V65.368C194.672 63.1493 194.715 60.5467 194.8 57.56C194.971 54.488 195.099 52.1413 195.184 50.52C193.648 50.6053 192.112 50.6907 190.576 50.776C189.04 50.776 187.504 50.8187 185.968 50.904V45.4H214.64V49.624ZM352.362 72.408C352.277 67.3733 351.765 63.192 350.826 59.864C349.887 56.536 348.223 54.0613 345.834 52.44C343.53 50.7333 340.159 49.9227 335.722 50.008H324.842L324.714 119.768C324.714 122.072 324.671 124.077 324.586 125.784C324.586 127.405 324.501 128.771 324.33 129.88C326.122 129.795 327.871 129.709 329.578 129.624C331.37 129.539 333.162 129.453 334.954 129.368V135H304.874V130.776C308.117 130.605 310.293 129.837 311.402 128.472C312.597 127.107 313.237 125.272 313.322 122.968C313.493 120.579 313.578 117.933 313.578 115.032L313.706 50.136L300.522 50.264C295.146 50.264 291.349 52.056 289.13 55.64C286.911 59.224 285.802 64.8133 285.802 72.408H281.066L281.834 45.4H356.458L357.226 72.408H352.362ZM395.965 49.624C392.808 49.7093 390.589 50.4347 389.309 51.8C388.114 53.1653 387.432 55 387.261 57.304C387.176 59.608 387.133 62.296 387.133 65.368V119.768C387.133 122.072 387.09 124.077 387.005 125.784C387.005 127.405 386.92 128.771 386.749 129.88C388.285 129.795 389.821 129.709 391.357 129.624C392.893 129.539 394.429 129.453 395.965 129.368V135H367.165V130.776C370.408 130.605 372.626 129.88 373.821 128.6C375.016 127.235 375.656 125.4 375.741 123.096C375.912 120.707 375.997 118.019 375.997 115.032V59.736C375.997 58.0293 376.04 56.408 376.125 54.872C376.21 53.2507 376.296 51.8 376.381 50.52C374.845 50.6053 373.309 50.6907 371.773 50.776C370.237 50.8613 368.701 50.9467 367.165 51.032V45.4H395.965V49.624ZM410.04 135V130.776C413.283 130.605 415.501 129.88 416.696 128.6C417.891 127.235 418.531 125.4 418.616 123.096C418.787 120.707 418.872 118.019 418.872 115.032V59.736C418.872 58.0293 418.915 56.408 419 54.872C419.085 53.2507 419.171 51.8 419.256 50.52C417.72 50.6053 416.184 50.6907 414.648 50.776C413.112 50.8613 411.576 50.9467 410.04 51.032V45.4H469.432L470.072 67.8H465.848C465.848 62.7653 465.037 58.968 463.416 56.408C461.795 53.7627 459.661 52.0133 457.016 51.16C454.371 50.2213 451.427 49.7947 448.184 49.88L438.84 50.136C435.683 50.2213 433.507 50.9893 432.312 52.44C431.117 53.8053 430.435 55.64 430.264 57.944C430.093 60.248 430.008 62.8933 430.008 65.88V87.896L452.28 88.024L451.384 76.888H457.016V103.896H452.92C452.92 100.056 452.365 97.3253 451.256 95.704C450.232 94.0827 448.611 93.1013 446.392 92.76C444.173 92.4187 441.272 92.3333 437.688 92.504L430.008 92.888V119.768C430.008 122.072 429.965 124.077 429.88 125.784C429.88 127.405 429.795 128.771 429.624 129.88C431.075 129.795 432.525 129.752 433.976 129.752C435.427 129.667 436.877 129.581 438.328 129.496C439.779 129.411 441.229 129.368 442.68 129.368V135H410.04ZM500.645 135V130.776C503.888 130.605 506.064 129.837 507.173 128.472C508.368 127.107 509.008 125.272 509.093 122.968C509.264 120.579 509.349 117.933 509.349 115.032L509.477 100.44L487.205 65.24C485.072 61.8267 483.45 58.968 482.341 56.664C481.317 54.36 480.634 52.3973 480.293 50.776C478.928 50.8613 477.605 50.904 476.325 50.904C475.045 50.904 473.722 50.9467 472.357 51.032V45.4H505.381V49.624C501.456 49.624 498.725 50.2213 497.189 51.416C495.653 52.6107 495.056 54.2747 495.397 56.408C495.824 58.456 496.89 60.8453 498.597 63.576L508.837 79.704C509.605 80.8987 510.416 82.136 511.269 83.416C512.122 84.696 512.976 86.0187 513.829 87.384C514.768 88.664 515.749 90.0293 516.773 91.48H517.029C517.968 89.6027 518.906 87.8107 519.845 86.104C520.784 84.312 521.68 82.6053 522.533 80.984L533.413 60.376C533.84 59.5227 534.352 58.5413 534.949 57.432C535.632 56.2373 536.357 55.0427 537.125 53.848C537.893 52.568 538.704 51.5013 539.557 50.648C537.936 50.7333 536.272 50.8187 534.565 50.904C532.858 50.904 531.152 50.9467 529.445 51.032V45.4H555.557V49.624C551.376 49.88 547.92 51.3307 545.189 53.976C542.544 56.6213 539.728 60.6747 536.741 66.136C533.84 71.5973 531.024 76.8453 528.293 81.88C525.648 86.9147 523.088 91.8213 520.613 96.6C520.613 98.136 520.57 100.184 520.485 102.744C520.485 105.304 520.485 107.907 520.485 110.552C520.485 113.112 520.485 115.288 520.485 117.08C520.485 118.872 520.485 119.768 520.485 119.768C520.485 122.072 520.442 124.077 520.357 125.784C520.357 127.405 520.272 128.771 520.101 129.88C521.893 129.795 523.642 129.709 525.349 129.624C527.141 129.539 528.933 129.453 530.725 129.368V135H500.645Z" fill="black"/>
</svg>
